# xmcd CD database file
#
# Track frame offsets:
#	150
#	42334
#	62278
#	97905
#	120357
#	169387
#	193722
#	230765
#	260667
#	278752
#	336292
#
# Disc length: 4795 seconds
#
# Revision: 1
# Processed by: cddbd v1.5.2PL0 Copyright (c) Steve Scherf et al.
# Submitted via: CDex 1.70beta2
#
DISCID=9912b90b
DTITLE=Various Artist - BLUE VILLAGE
DYEAR=2003
DGENRE=Jazz
TTITLE0=COOL STRUTTIN'
TTITLE1=FASCINATING RHYTHM
TTITLE2=MAIDEN VOYAGE
TTITLE3=GROOVY SAMBA
TTITLE4=TUNE UP
TTITLE5=WELL YOU NEEDN'T
TTITLE6=RECADO BOSSA NOVA
TTITLE7=STRAIGHT NO CHASER
TTITLE8=MIDNIGHT BLUE
TTITLE9=THE SIDEWINDER
TTITLE10=dammydata
EXTD=YEAR: 2003
EXTT0=
EXTT1=
EXTT2=
EXTT3=
EXTT4=
EXTT5=
EXTT6=
EXTT7=
EXTT8=
EXTT9=
EXTT10=
PLAYORDER=
